<svg width="32" height="32" viewBox="0 0 24 24" fill="none" xmlns="http://www.w3.org/2000/svg">
<path d="M12 2C7.029 2 3 6.029 3 11C3 15.971 7.029 20 12 20C16.971 20 21 15.971 21 11C21 6.029 16.971 2 12 2ZM14 4C14 5 13.5 6 12.5 6C11.5 6 11 7 11 8V11C11 11 12 11 12 8C12 7.73478 12.1054 7.48043 12.2929 7.29289C12.4804 7.10536 12.7348 7 13 7C13.2652 7 13.5196 7.10536 13.7071 7.29289C13.8946 7.48043 14 7.73478 14 8V11C13.8022 11 13.6089 11.0586 13.4444 11.1685C13.28 11.2784 13.1518 11.4346 13.0761 11.6173C13.0004 11.8 12.9806 12.0011 13.0192 12.1951C13.0578 12.3891 13.153 12.5673 13.2929 12.7071C13.4327 12.847 13.6109 12.9422 13.8049 12.9808C13.9989 13.0194 14.2 12.9996 14.3827 12.9239C14.5654 12.8482 14.7216 12.72 14.8315 12.5556C14.9414 12.3911 15 12.1978 15 12H16V10L17 11L16 12C16 15 16 15 14 16C14 15 13 15 11 15V13L9 11V9C8 9 8 10 8 10L7.439 9.439L5.049 7.049C5.159 6.857 5.274 6.667 5.399 6.485L5.922 5.807C6.67121 4.92667 7.6028 4.21969 8.65227 3.73501C9.70174 3.25033 10.844 2.99954 12 3C12.675 3.00313 13.347 3.09116 14 3.262V4Z" fill="white"/>
</svg>
